{
  "asset": {
    "version": "2.0",
    "generator": "bake-bomb"
  },
  "scene": 0,
  "scenes": [
    {
      "nodes": [
        0
      ]
    }
  ],
  "nodes": [
    {
      "mesh": 0,
      "name": "ToyBomb"
    }
  ],
  "meshes": [
    {
      "name": "ToyBomb",
      "primitives": [
        {
          "attributes": {
            "POSITION": 0,
            "NORMAL": 1,
            "TEXCOORD_0": 2
          },
          "indices": 3
        }
      ]
    }
  ],
  "accessors": [
    {
      "bufferView": 0,
      "componentType": 5126,
      "count": 879,
      "type": "VEC3",
      "min": [
        -0.46,
        -0.48000000000000004,
        -0.46
      ],
      "max": [
        0.46,
        0.9099999999999999,
        0.46
      ]
    },
    {
      "bufferView": 1,
      "componentType": 5126,
      "count": 879,
      "type": "VEC3"
    },
    {
      "bufferView": 2,
      "componentType": 5126,
      "count": 879,
      "type": "VEC2"
    },
    {
      "bufferView": 3,
      "componentType": 5123,
      "count": 4626,
      "type": "SCALAR"
    }
  ],
  "bufferViews": [
    {
      "buffer": 0,
      "byteOffset": 0,
      "byteLength": 10548,
      "target": 34962
    },
    {
      "buffer": 0,
      "byteOffset": 10548,
      "byteLength": 10548,
      "target": 34962
    },
    {
      "buffer": 0,
      "byteOffset": 21096,
      "byteLength": 7032,
      "target": 34962
    },
    {
      "buffer": 0,
      "byteOffset": 28128,
      "byteLength": 9252,
      "target": 34963
    }
  ],
  "buffers": [
    {
      "byteLength": 37380,
      "uri": "data:application/octet-stream;base64,"
    }
  ]
}
