{
  "asset": {
    "version": "2.0",
    "generator": "import-shooter-bullet"
  },
  "scene": 0,
  "scenes": [
    {
      "nodes": [
        0
      ]
    }
  ],
  "nodes": [
    {
      "mesh": 0,
      "name": "ToyBullet"
    }
  ],
  "meshes": [
    {
      "name": "ToyBullet",
      "primitives": [
        {
          "attributes": {
            "POSITION": 0,
            "NORMAL": 1,
            "TEXCOORD_0": 2
          },
          "indices": 3
        }
      ]
    }
  ],
  "accessors": [
    {
      "bufferView": 0,
      "componentType": 5126,
      "count": 115,
      "type": "VEC3",
      "min": [
        -0.499999803268071,
        -0.49999983642513773,
        -0.5
      ],
      "max": [
        0.499999803268071,
        0.4999997701110043,
        0.49999983642513773
      ]
    },
    {
      "bufferView": 1,
      "componentType": 5126,
      "count": 115,
      "type": "VEC3"
    },
    {
      "bufferView": 2,
      "componentType": 5126,
      "count": 115,
      "type": "VEC2"
    },
    {
      "bufferView": 3,
      "componentType": 5123,
      "count": 504,
      "type": "SCALAR"
    }
  ],
  "bufferViews": [
    {
      "buffer": 0,
      "byteOffset": 0,
      "byteLength": 1380,
      "target": 34962
    },
    {
      "buffer": 0,
      "byteOffset": 1380,
      "byteLength": 1380,
      "target": 34962
    },
    {
      "buffer": 0,
      "byteOffset": 2760,
      "byteLength": 920,
      "target": 34962
    },
    {
      "buffer": 0,
      "byteOffset": 3680,
      "byteLength": 1008,
      "target": 34963
    }
  ],
  "buffers": [
    {
      "byteLength": 4688,
      "uri": "data:application/octet-stream;base64,"
    }
  ]
}
