{
  "asset": {
    "version": "2.0",
    "generator": "bake-iron-plate"
  },
  "scene": 0,
  "scenes": [
    {
      "nodes": [
        0
      ]
    }
  ],
  "nodes": [
    {
      "mesh": 0,
      "name": "IronPlate"
    }
  ],
  "meshes": [
    {
      "name": "IronPlate",
      "primitives": [
        {
          "attributes": {
            "POSITION": 0,
            "NORMAL": 1,
            "TEXCOORD_0": 2
          },
          "indices": 3
        }
      ]
    }
  ],
  "accessors": [
    {
      "bufferView": 0,
      "componentType": 5126,
      "count": 600,
      "type": "VEC3",
      "min": [
        -0.5,
        -0.07,
        -0.5
      ],
      "max": [
        0.5,
        0.10200000000000001,
        0.5
      ]
    },
    {
      "bufferView": 1,
      "componentType": 5126,
      "count": 600,
      "type": "VEC3"
    },
    {
      "bufferView": 2,
      "componentType": 5126,
      "count": 600,
      "type": "VEC2"
    },
    {
      "bufferView": 3,
      "componentType": 5123,
      "count": 2196,
      "type": "SCALAR"
    }
  ],
  "bufferViews": [
    {
      "buffer": 0,
      "byteOffset": 0,
      "byteLength": 7200,
      "target": 34962
    },
    {
      "buffer": 0,
      "byteOffset": 7200,
      "byteLength": 7200,
      "target": 34962
    },
    {
      "buffer": 0,
      "byteOffset": 14400,
      "byteLength": 4800,
      "target": 34962
    },
    {
      "buffer": 0,
      "byteOffset": 19200,
      "byteLength": 4392,
      "target": 34963
    }
  ],
  "buffers": [
    {
      "byteLength": 23592,
      "uri": "data:application/octet-stream;base64,"
    }
  ]
}
