{
  "asset": {
    "version": "2.0",
    "generator": "bake-lock-chain"
  },
  "scene": 0,
  "scenes": [
    {
      "nodes": [
        0
      ]
    }
  ],
  "nodes": [
    {
      "mesh": 0,
      "name": "LockChainLink"
    }
  ],
  "meshes": [
    {
      "name": "LockChainLink",
      "primitives": [
        {
          "attributes": {
            "POSITION": 0,
            "NORMAL": 1,
            "TEXCOORD_0": 2
          },
          "indices": 3
        }
      ]
    }
  ],
  "accessors": [
    {
      "bufferView": 0,
      "componentType": 5126,
      "count": 153,
      "type": "VEC3",
      "min": [
        -0.8704,
        -0.6799999999999999,
        -0.18
      ],
      "max": [
        0.8704,
        0.6799999999999999,
        0.18
      ]
    },
    {
      "bufferView": 1,
      "componentType": 5126,
      "count": 153,
      "type": "VEC3"
    },
    {
      "bufferView": 2,
      "componentType": 5126,
      "count": 153,
      "type": "VEC2"
    },
    {
      "bufferView": 3,
      "componentType": 5123,
      "count": 768,
      "type": "SCALAR"
    }
  ],
  "bufferViews": [
    {
      "buffer": 0,
      "byteOffset": 0,
      "byteLength": 1836,
      "target": 34962
    },
    {
      "buffer": 0,
      "byteOffset": 1836,
      "byteLength": 1836,
      "target": 34962
    },
    {
      "buffer": 0,
      "byteOffset": 3672,
      "byteLength": 1224,
      "target": 34962
    },
    {
      "buffer": 0,
      "byteOffset": 4896,
      "byteLength": 1536,
      "target": 34963
    }
  ],
  "buffers": [
    {
      "byteLength": 6432,
      "uri": "data:application/octet-stream;base64,"
    }
  ]
}
