{
  "asset": {
    "version": "2.0",
    "generator": "import-shooter-bullet"
  },
  "scene": 0,
  "scenes": [
    {
      "nodes": [
        0
      ]
    }
  ],
  "nodes": [
    {
      "mesh": 0,
      "name": "ToyShooter"
    }
  ],
  "meshes": [
    {
      "name": "ToyShooter",
      "primitives": [
        {
          "attributes": {
            "POSITION": 0,
            "NORMAL": 1,
            "TEXCOORD_0": 2
          },
          "indices": 3
        }
      ]
    }
  ],
  "accessors": [
    {
      "bufferView": 0,
      "componentType": 5126,
      "count": 1230,
      "type": "VEC3",
      "min": [
        -0.2,
        0,
        -0.24449802390741748
      ],
      "max": [
        0.2,
        0.3761069550229247,
        0.24449802390741748
      ]
    },
    {
      "bufferView": 1,
      "componentType": 5126,
      "count": 1230,
      "type": "VEC3"
    },
    {
      "bufferView": 2,
      "componentType": 5126,
      "count": 1230,
      "type": "VEC2"
    },
    {
      "bufferView": 3,
      "componentType": 5123,
      "count": 5820,
      "type": "SCALAR"
    }
  ],
  "bufferViews": [
    {
      "buffer": 0,
      "byteOffset": 0,
      "byteLength": 14760,
      "target": 34962
    },
    {
      "buffer": 0,
      "byteOffset": 14760,
      "byteLength": 14760,
      "target": 34962
    },
    {
      "buffer": 0,
      "byteOffset": 29520,
      "byteLength": 9840,
      "target": 34962
    },
    {
      "buffer": 0,
      "byteOffset": 39360,
      "byteLength": 11640,
      "target": 34963
    }
  ],
  "buffers": [
    {
      "byteLength": 51000,
      "uri": "data:application/octet-stream;base64,"
    }
  ]
}
